# xmcd CD database file
#
# Track frame offsets:
#	150
#	12662
#	23865
#	35565
#	48132
#	59085
#	73445
#	87367
#	101250
#	117755
#	131987
#	143875
#
# Disc length: 1973 seconds
#
# Revision: 0
# Processed by: cddbd v1.5.2PL0 Copyright (c) Steve Scherf et al.
# Submitted via: CDex 1.70beta2
#
DISCID=b107b30c
DTITLE=Old Stoariegler Dixielandband - Tschäss auf Bewährung
DYEAR=1900
DGENRE=Jazz
TTITLE0=01 that's a Plenty
TTITLE1=02 Spaghetti Rag
TTITLE2=03 La vie en Rose
TTITLE3=04 Dark Eyes
TTITLE4=05 Leonardi Rag
TTITLE5=06 O sole mio
TTITLE6=07 I found a new Baby
TTITLE7=08 mStan Laurel for President
TTITLE8=09 The Preacher
TTITLE9=10 Sweet Sue
TTITLE10=11 Oh when the Saints
TTITLE11=12 Elisabeth Marinade
EXTD=
EXTT0=
EXTT1=
EXTT2=
EXTT3=
EXTT4=
EXTT5=
EXTT6=
EXTT7=
EXTT8=
EXTT9=
EXTT10=
EXTT11=
PLAYORDER=
